<?xml version="1.0" encoding="utf-8"?>
<!-- Generator: Adobe Illustrator 19.1.0, SVG Export Plug-In . SVG Version: 6.00 Build 0)  -->
<svg version="1.0" id="レイヤー_1" xmlns="http://www.w3.org/2000/svg" xmlns:xlink="http://www.w3.org/1999/xlink" x="0px"
	 y="0px" width="293.901px" height="65.742px" viewBox="0 0 293.901 65.742" enable-background="new 0 0 293.901 65.742"
	 xml:space="preserve">
<g>
	<path fill="#47266E" d="M16.273,13.538c8.785,0,11.809,6.84,11.809,6.84h0.144c0,0-0.144-1.224-0.144-2.736V0h4.896v50.621h-4.752
		v-3.816c0-1.584,0.144-2.592,0.144-2.592h-0.144c0,0-2.952,7.272-12.457,7.272C6.048,51.485,0,43.708,0,32.475
		C0,21.026,6.769,13.538,16.273,13.538z M16.489,47.092c6.049,0,11.737-4.32,11.737-14.617c0-7.345-3.745-14.545-11.521-14.545
		c-6.409,0-11.665,5.4-11.665,14.545C5.041,41.404,9.721,47.092,16.489,47.092z"/>
	<path fill="#47266E" d="M61.273,13.538c10.585,0,19.153,8.064,19.153,18.794c0,10.944-8.568,19.153-19.153,19.153
		s-19.154-8.209-19.154-19.153C42.119,21.602,50.688,13.538,61.273,13.538z M61.273,47.092c7.776,0,14.113-6.336,14.113-14.761
		c0-8.209-6.337-14.33-14.113-14.33c-7.777,0-14.113,6.121-14.113,14.33C47.16,40.756,53.496,47.092,61.273,47.092z"/>
	<path fill="#47266E" d="M106.057,13.538c8.856,0,13.249,5.184,13.249,5.184l-2.52,3.672c0,0-4.033-4.392-10.585-4.392
		c-7.921,0-14.113,5.904-14.113,14.545c0,8.497,6.265,14.545,14.257,14.545c7.344,0,11.593-5.112,11.593-5.112l2.232,3.816
		c0,0-4.896,5.688-14.113,5.688c-10.729,0-19.01-7.705-19.01-18.938C87.047,21.386,95.399,13.538,106.057,13.538z"/>
	<path fill="#47266E" d="M129.095,14.401h4.825v6.409c0,1.584-0.144,2.88-0.144,2.88h0.144c1.728-5.473,5.76-9.649,11.449-9.649
		c1.008,0,1.945,0.216,1.945,0.216v4.825c0,0-0.865-0.144-1.801-0.144c-5.112,0-8.929,4.032-10.513,9.361
		c-0.72,2.304-1.008,4.752-1.008,7.057v15.265h-4.896V14.401z"/>
	<path fill="#47266E" d="M151.198,59.694c0,0,2.017,1.656,4.32,1.656c3.168,0,5.4-2.593,6.841-5.905l2.232-5.112l-15.122-35.931h5.4
		l10.657,26.426c0.72,1.801,1.296,3.816,1.296,3.816h0.145c0,0,0.504-2.016,1.224-3.816l10.441-26.426h5.328l-17.857,43.78
		c-1.872,4.608-5.616,7.561-10.44,7.561c-3.745,0-6.337-2.16-6.337-2.16L151.198,59.694z"/>
	<path fill="#47266E" d="M190.366,42.7c0,0,4.032,4.393,10.801,4.393c3.889,0,7.273-1.944,7.273-5.76
		c0-7.921-19.515-5.977-19.515-17.786c0-6.48,5.833-10.009,12.386-10.009c7.633,0,11.161,3.96,11.161,3.96l-2.232,3.745
		c0,0-3.097-3.312-9.073-3.312c-3.672,0-7.2,1.584-7.2,5.617c0,7.993,19.514,5.833,19.514,17.786
		c0,5.904-5.112,10.152-12.386,10.152c-8.784,0-13.393-5.257-13.393-5.257L190.366,42.7z"/>
	<path fill="#47266E" d="M223.917,18.938h-4.752v-4.104h4.824V4.393h4.824v10.441h9.073v4.104h-9.073V36.94
		c0,8.496,5.4,9.576,8.137,9.576c1.008,0,1.656-0.144,1.656-0.144v4.393c0,0-0.792,0.144-2.088,0.144
		c-4.177,0-12.602-1.368-12.602-13.465V18.938z"/>
	<path fill="#47266E" d="M265.894,28.227h2.017v-0.936c0-6.984-3.816-9.361-9.001-9.361c-5.977,0-10.225,3.457-10.225,3.457
		l-2.305-3.745c0,0,4.753-4.104,12.89-4.104c8.713,0,13.537,4.824,13.537,13.897v23.186h-4.681v-3.96
		c0-1.801,0.145-3.024,0.145-3.024h-0.145c0,0-3.024,7.849-12.097,7.849c-6.049,0-12.313-3.528-12.313-10.729
		C243.716,28.515,259.629,28.227,265.894,28.227z M256.822,47.308c6.912,0,11.089-7.2,11.089-13.465v-1.584h-2.088
		c-5.688,0-17.065,0.216-17.065,8.209C248.757,43.852,251.421,47.308,256.822,47.308z"/>
	<path fill="#47266E" d="M283.749,0h4.896v40.972c0,4.752,2.161,5.473,4.033,5.473c0.647,0,1.224-0.072,1.224-0.072v4.393
		c0,0-0.864,0.144-1.8,0.144c-3.024,0-8.353-0.936-8.353-8.856V0z"/>
</g>
<g>
</g>
<g>
</g>
<g>
</g>
<g>
</g>
<g>
</g>
<g>
</g>
<g>
</g>
<g>
</g>
<g>
</g>
<g>
</g>
<g>
</g>
<g>
</g>
<g>
</g>
<g>
</g>
<g>
</g>
</svg>
